<svg xmlns="http://www.w3.org/2000/svg" viewBox="0 0 72 48" shape-rendering="crispEdges" preserveAspectRatio="xMidYMid slice"><rect x="0" y="0" width="72.02" height="1.02" fill="#a6cff1"/><rect x="0" y="1" width="72.02" height="1.02" fill="#a6cff1"/><rect x="0" y="2" width="72.02" height="1.02" fill="#a6cff1"/><rect x="0" y="3" width="72.02" height="1.02" fill="#a6cff1"/><rect x="0" y="4" width="72.02" height="1.02" fill="#a6cff1"/><rect x="0" y="5" width="72.02" height="1.02" fill="#a6cff1"/><rect x="0" y="6" width="72.02" height="1.02" fill="#a6cff1"/><rect x="0" y="7" width="72.02" height="1.02" fill="#a6cff1"/><rect x="0" y="8" width="72.02" height="1.02" fill="#a6cff1"/><rect x="0" y="9" width="72.02" height="1.02" fill="#a6cff1"/><rect x="0" y="10" width="72.02" height="1.02" fill="#a6cff1"/><rect x="0" y="11" width="72.02" height="1.02" fill="#a6cff1"/><rect x="0" y="12" width="72.02" height="1.02" fill="#b8daf6"/><rect x="0" y="13" width="72.02" height="1.02" fill="#b8daf6"/><rect x="0" y="14" width="72.02" height="1.02" fill="#b8daf6"/><rect x="0" y="15" width="59.02" height="1.02" fill="#b8daf6"/><rect x="59" y="15" width="4.02" height="1.02" fill="#FFFFFF"/><rect x="63" y="15" width="9.02" height="1.02" fill="#b8daf6"/><rect x="0" y="16" width="58.02" height="1.02" fill="#b8daf6"/><rect x="58" y="16" width="6.02" height="1.02" fill="#FFFFFF"/><rect x="64" y="16" width="8.02" height="1.02" fill="#b8daf6"/><rect x="0" y="17" width="57.02" height="1.02" fill="#b8daf6"/><rect x="57" y="17" width="8.02" height="1.02" fill="#FFFFFF"/><rect x="65" y="17" width="7.02" height="1.02" fill="#b8daf6"/><rect x="0" y="18" width="5.02" height="1.02" fill="#b8daf6"/><rect x="5" y="18" width="4.02" height="1.02" fill="#FFFFFF"/><rect x="9" y="18" width="49.02" height="1.02" fill="#b8daf6"/><rect x="58" y="18" width="6.02" height="1.02" fill="#FFFFFF"/><rect x="64" y="18" width="8.02" height="1.02" fill="#b8daf6"/><rect x="0" y="19" width="4.02" height="1.02" fill="#b8daf6"/><rect x="4" y="19" width="6.02" height="1.02" fill="#FFFFFF"/><rect x="10" y="19" width="62.02" height="1.02" fill="#b8daf6"/><rect x="0" y="20" width="3.02" height="1.02" fill="#b8daf6"/><rect x="3" y="20" width="8.02" height="1.02" fill="#FFFFFF"/><rect x="11" y="20" width="61.02" height="1.02" fill="#b8daf6"/><rect x="0" y="21" width="4.02" height="1.02" fill="#cbe7fb"/><rect x="4" y="21" width="6.02" height="1.02" fill="#FFFFFF"/><rect x="10" y="21" width="62.02" height="1.02" fill="#cbe7fb"/><rect x="0" y="22" width="72.02" height="1.02" fill="#cbe7fb"/><rect x="0" y="23" width="72.02" height="1.02" fill="#cbe7fb"/><rect x="0" y="24" width="31.02" height="1.02" fill="#cbe7fb"/><rect x="31" y="19" width="11.02" height="1.02" fill="#eaa6ad"/><rect x="28" y="20" width="3.02" height="1.02" fill="#eaa6ad"/><rect x="31" y="20" width="11.02" height="1.02" fill="#f3c79c"/><rect x="42" y="20" width="3.02" height="1.02" fill="#eaa6ad"/><rect x="25" y="21" width="3.02" height="1.02" fill="#eaa6ad"/><rect x="28" y="21" width="4.02" height="1.02" fill="#f3c79c"/><rect x="32" y="21" width="9.02" height="1.02" fill="#f2e3a2"/><rect x="41" y="21" width="4.02" height="1.02" fill="#f3c79c"/><rect x="45" y="21" width="3.02" height="1.02" fill="#eaa6ad"/><rect x="23" y="22" width="2.02" height="1.02" fill="#eaa6ad"/><rect x="25" y="22" width="3.02" height="1.02" fill="#f3c79c"/><rect x="28" y="22" width="3.02" height="1.02" fill="#f2e3a2"/><rect x="31" y="22" width="11.02" height="1.02" fill="#aeddb9"/><rect x="42" y="22" width="3.02" height="1.02" fill="#f2e3a2"/><rect x="45" y="22" width="3.02" height="1.02" fill="#f3c79c"/><rect x="48" y="22" width="2.02" height="1.02" fill="#eaa6ad"/><rect x="22" y="23" width="2.02" height="1.02" fill="#eaa6ad"/><rect x="24" y="23" width="2.02" height="1.02" fill="#f3c79c"/><rect x="26" y="23" width="2.02" height="1.02" fill="#f2e3a2"/><rect x="28" y="23" width="4.02" height="1.02" fill="#aeddb9"/><rect x="32" y="23" width="9.02" height="1.02" fill="#a9c8ef"/><rect x="41" y="23" width="4.02" height="1.02" fill="#aeddb9"/><rect x="45" y="23" width="2.02" height="1.02" fill="#f2e3a2"/><rect x="47" y="23" width="2.02" height="1.02" fill="#f3c79c"/><rect x="49" y="23" width="2.02" height="1.02" fill="#eaa6ad"/><rect x="21" y="24" width="1.02" height="1.02" fill="#eaa6ad"/><rect x="22" y="24" width="2.02" height="1.02" fill="#f3c79c"/><rect x="24" y="24" width="2.02" height="1.02" fill="#f2e3a2"/><rect x="26" y="24" width="2.02" height="1.02" fill="#aeddb9"/><rect x="28" y="24" width="4.02" height="1.02" fill="#a9c8ef"/><rect x="32" y="24" width="9.02" height="1.02" fill="#c4aede"/><rect x="41" y="24" width="4.02" height="1.02" fill="#a9c8ef"/><rect x="45" y="24" width="2.02" height="1.02" fill="#aeddb9"/><rect x="47" y="24" width="2.02" height="1.02" fill="#f2e3a2"/><rect x="49" y="24" width="2.02" height="1.02" fill="#f3c79c"/><rect x="51" y="24" width="1.02" height="1.02" fill="#eaa6ad"/><rect x="19" y="25" width="2.02" height="1.02" fill="#eaa6ad"/><rect x="21" y="25" width="1.02" height="1.02" fill="#f3c79c"/><rect x="22" y="25" width="2.02" height="1.02" fill="#f2e3a2"/><rect x="24" y="25" width="2.02" height="1.02" fill="#aeddb9"/><rect x="26" y="25" width="3.02" height="1.02" fill="#a9c8ef"/><rect x="29" y="25" width="4.02" height="1.02" fill="#c4aede"/><rect x="40" y="25" width="4.02" height="1.02" fill="#c4aede"/><rect x="44" y="25" width="3.02" height="1.02" fill="#a9c8ef"/><rect x="47" y="25" width="2.02" height="1.02" fill="#aeddb9"/><rect x="49" y="25" width="2.02" height="1.02" fill="#f2e3a2"/><rect x="51" y="25" width="1.02" height="1.02" fill="#f3c79c"/><rect x="52" y="25" width="2.02" height="1.02" fill="#eaa6ad"/><rect x="18" y="26" width="2.02" height="1.02" fill="#eaa6ad"/><rect x="20" y="26" width="1.02" height="1.02" fill="#f3c79c"/><rect x="21" y="26" width="2.02" height="1.02" fill="#f2e3a2"/><rect x="23" y="26" width="2.02" height="1.02" fill="#aeddb9"/><rect x="25" y="26" width="2.02" height="1.02" fill="#a9c8ef"/><rect x="27" y="26" width="2.02" height="1.02" fill="#c4aede"/><rect x="44" y="26" width="2.02" height="1.02" fill="#c4aede"/><rect x="46" y="26" width="2.02" height="1.02" fill="#a9c8ef"/><rect x="48" y="26" width="2.02" height="1.02" fill="#aeddb9"/><rect x="50" y="26" width="2.02" height="1.02" fill="#f2e3a2"/><rect x="52" y="26" width="1.02" height="1.02" fill="#f3c79c"/><rect x="53" y="26" width="2.02" height="1.02" fill="#eaa6ad"/><rect x="17" y="27" width="2.02" height="1.02" fill="#eaa6ad"/><rect x="19" y="27" width="1.02" height="1.02" fill="#f3c79c"/><rect x="20" y="27" width="2.02" height="1.02" fill="#f2e3a2"/><rect x="22" y="27" width="1.02" height="1.02" fill="#aeddb9"/><rect x="23" y="27" width="2.02" height="1.02" fill="#a9c8ef"/><rect x="25" y="27" width="2.02" height="1.02" fill="#c4aede"/><rect x="46" y="27" width="2.02" height="1.02" fill="#c4aede"/><rect x="48" y="27" width="2.02" height="1.02" fill="#a9c8ef"/><rect x="50" y="27" width="1.02" height="1.02" fill="#aeddb9"/><rect x="51" y="27" width="2.02" height="1.02" fill="#f2e3a2"/><rect x="53" y="27" width="1.02" height="1.02" fill="#f3c79c"/><rect x="54" y="27" width="2.02" height="1.02" fill="#eaa6ad"/><rect x="17" y="28" width="1.02" height="1.02" fill="#eaa6ad"/><rect x="18" y="28" width="1.02" height="1.02" fill="#f3c79c"/><rect x="19" y="28" width="1.02" height="1.02" fill="#f2e3a2"/><rect x="20" y="28" width="2.02" height="1.02" fill="#aeddb9"/><rect x="22" y="28" width="1.02" height="1.02" fill="#a9c8ef"/><rect x="23" y="28" width="3.02" height="1.02" fill="#c4aede"/><rect x="47" y="28" width="3.02" height="1.02" fill="#c4aede"/><rect x="50" y="28" width="1.02" height="1.02" fill="#a9c8ef"/><rect x="51" y="28" width="2.02" height="1.02" fill="#aeddb9"/><rect x="53" y="28" width="1.02" height="1.02" fill="#f2e3a2"/><rect x="54" y="28" width="1.02" height="1.02" fill="#f3c79c"/><rect x="55" y="28" width="1.02" height="1.02" fill="#eaa6ad"/><rect x="16" y="29" width="1.02" height="1.02" fill="#eaa6ad"/><rect x="17" y="29" width="1.02" height="1.02" fill="#f3c79c"/><rect x="18" y="29" width="2.02" height="1.02" fill="#f2e3a2"/><rect x="20" y="29" width="1.02" height="1.02" fill="#aeddb9"/><rect x="21" y="29" width="1.02" height="1.02" fill="#a9c8ef"/><rect x="22" y="29" width="2.02" height="1.02" fill="#c4aede"/><rect x="49" y="29" width="2.02" height="1.02" fill="#c4aede"/><rect x="51" y="29" width="1.02" height="1.02" fill="#a9c8ef"/><rect x="52" y="29" width="1.02" height="1.02" fill="#aeddb9"/><rect x="53" y="29" width="2.02" height="1.02" fill="#f2e3a2"/><rect x="55" y="29" width="1.02" height="1.02" fill="#f3c79c"/><rect x="56" y="29" width="1.02" height="1.02" fill="#eaa6ad"/><rect x="15" y="30" width="1.02" height="1.02" fill="#eaa6ad"/><rect x="16" y="30" width="1.02" height="1.02" fill="#f3c79c"/><rect x="17" y="30" width="2.02" height="1.02" fill="#f2e3a2"/><rect x="19" y="30" width="1.02" height="1.02" fill="#aeddb9"/><rect x="20" y="30" width="1.02" height="1.02" fill="#a9c8ef"/><rect x="21" y="30" width="2.02" height="1.02" fill="#c4aede"/><rect x="50" y="30" width="2.02" height="1.02" fill="#c4aede"/><rect x="52" y="30" width="1.02" height="1.02" fill="#a9c8ef"/><rect x="53" y="30" width="1.02" height="1.02" fill="#aeddb9"/><rect x="54" y="30" width="2.02" height="1.02" fill="#f2e3a2"/><rect x="56" y="30" width="1.02" height="1.02" fill="#f3c79c"/><rect x="57" y="30" width="1.02" height="1.02" fill="#eaa6ad"/><rect x="14" y="31" width="2.02" height="1.02" fill="#eaa6ad"/><rect x="16" y="31" width="1.02" height="1.02" fill="#f3c79c"/><rect x="17" y="31" width="1.02" height="1.02" fill="#f2e3a2"/><rect x="18" y="31" width="1.02" height="1.02" fill="#aeddb9"/><rect x="19" y="31" width="1.02" height="1.02" fill="#a9c8ef"/><rect x="20" y="31" width="2.02" height="1.02" fill="#c4aede"/><rect x="51" y="31" width="2.02" height="1.02" fill="#c4aede"/><rect x="53" y="31" width="1.02" height="1.02" fill="#a9c8ef"/><rect x="54" y="31" width="1.02" height="1.02" fill="#aeddb9"/><rect x="55" y="31" width="1.02" height="1.02" fill="#f2e3a2"/><rect x="56" y="31" width="1.02" height="1.02" fill="#f3c79c"/><rect x="57" y="31" width="2.02" height="1.02" fill="#eaa6ad"/><rect x="14" y="32" width="1.02" height="1.02" fill="#eaa6ad"/><rect x="15" y="32" width="1.02" height="1.02" fill="#f3c79c"/><rect x="16" y="32" width="1.02" height="1.02" fill="#f2e3a2"/><rect x="17" y="32" width="2.02" height="1.02" fill="#aeddb9"/><rect x="19" y="32" width="1.02" height="1.02" fill="#a9c8ef"/><rect x="20" y="32" width="1.02" height="1.02" fill="#c4aede"/><rect x="52" y="32" width="1.02" height="1.02" fill="#c4aede"/><rect x="53" y="32" width="1.02" height="1.02" fill="#a9c8ef"/><rect x="54" y="32" width="2.02" height="1.02" fill="#aeddb9"/><rect x="56" y="32" width="1.02" height="1.02" fill="#f2e3a2"/><rect x="57" y="32" width="1.02" height="1.02" fill="#f3c79c"/><rect x="58" y="32" width="1.02" height="1.02" fill="#eaa6ad"/><rect x="13" y="33" width="1.02" height="1.02" fill="#eaa6ad"/><rect x="14" y="33" width="2.02" height="1.02" fill="#f3c79c"/><rect x="16" y="33" width="1.02" height="1.02" fill="#f2e3a2"/><rect x="17" y="33" width="1.02" height="1.02" fill="#aeddb9"/><rect x="18" y="33" width="1.02" height="1.02" fill="#a9c8ef"/><rect x="19" y="33" width="2.02" height="1.02" fill="#c4aede"/><rect x="52" y="33" width="2.02" height="1.02" fill="#c4aede"/><rect x="54" y="33" width="1.02" height="1.02" fill="#a9c8ef"/><rect x="55" y="33" width="1.02" height="1.02" fill="#aeddb9"/><rect x="56" y="33" width="1.02" height="1.02" fill="#f2e3a2"/><rect x="57" y="33" width="2.02" height="1.02" fill="#f3c79c"/><rect x="59" y="33" width="1.02" height="1.02" fill="#eaa6ad"/><rect x="13" y="34" width="1.02" height="1.02" fill="#eaa6ad"/><rect x="14" y="34" width="1.02" height="1.02" fill="#f3c79c"/><rect x="15" y="34" width="1.02" height="1.02" fill="#f2e3a2"/><rect x="16" y="34" width="1.02" height="1.02" fill="#aeddb9"/><rect x="17" y="34" width="2.02" height="1.02" fill="#a9c8ef"/><rect x="19" y="34" width="1.02" height="1.02" fill="#c4aede"/><rect x="53" y="34" width="1.02" height="1.02" fill="#c4aede"/><rect x="54" y="34" width="2.02" height="1.02" fill="#a9c8ef"/><rect x="56" y="34" width="1.02" height="1.02" fill="#aeddb9"/><rect x="57" y="34" width="1.02" height="1.02" fill="#f2e3a2"/><rect x="58" y="34" width="1.02" height="1.02" fill="#f3c79c"/><rect x="59" y="34" width="1.02" height="1.02" fill="#eaa6ad"/><rect x="13" y="35" width="1.02" height="1.02" fill="#eaa6ad"/><rect x="14" y="35" width="1.02" height="1.02" fill="#f3c79c"/><rect x="15" y="35" width="1.02" height="1.02" fill="#f2e3a2"/><rect x="16" y="35" width="1.02" height="1.02" fill="#aeddb9"/><rect x="17" y="35" width="1.02" height="1.02" fill="#a9c8ef"/><rect x="18" y="35" width="1.02" height="1.02" fill="#c4aede"/><rect x="54" y="35" width="1.02" height="1.02" fill="#c4aede"/><rect x="55" y="35" width="1.02" height="1.02" fill="#a9c8ef"/><rect x="56" y="35" width="1.02" height="1.02" fill="#aeddb9"/><rect x="57" y="35" width="1.02" height="1.02" fill="#f2e3a2"/><rect x="58" y="35" width="1.02" height="1.02" fill="#f3c79c"/><rect x="59" y="35" width="1.02" height="1.02" fill="#eaa6ad"/><rect x="12" y="36" width="1.02" height="1.02" fill="#eaa6ad"/><rect x="13" y="36" width="1.02" height="1.02" fill="#f3c79c"/><rect x="14" y="36" width="1.02" height="1.02" fill="#f2e3a2"/><rect x="15" y="36" width="1.02" height="1.02" fill="#aeddb9"/><rect x="16" y="36" width="2.02" height="1.02" fill="#a9c8ef"/><rect x="18" y="36" width="1.02" height="1.02" fill="#c4aede"/><rect x="54" y="36" width="1.02" height="1.02" fill="#c4aede"/><rect x="55" y="36" width="2.02" height="1.02" fill="#a9c8ef"/><rect x="57" y="36" width="1.02" height="1.02" fill="#aeddb9"/><rect x="58" y="36" width="1.02" height="1.02" fill="#f2e3a2"/><rect x="59" y="36" width="1.02" height="1.02" fill="#f3c79c"/><rect x="60" y="36" width="1.02" height="1.02" fill="#eaa6ad"/><rect x="13" y="37" width="1.02" height="1.02" fill="#f3c79c"/><rect x="14" y="37" width="1.02" height="1.02" fill="#f2e3a2"/><rect x="15" y="37" width="1.02" height="1.02" fill="#aeddb9"/><rect x="16" y="37" width="1.02" height="1.02" fill="#a9c8ef"/><rect x="17" y="37" width="1.02" height="1.02" fill="#c4aede"/><rect x="55" y="37" width="1.02" height="1.02" fill="#c4aede"/><rect x="56" y="37" width="1.02" height="1.02" fill="#a9c8ef"/><rect x="57" y="37" width="1.02" height="1.02" fill="#aeddb9"/><rect x="58" y="37" width="1.02" height="1.02" fill="#f2e3a2"/><rect x="59" y="37" width="1.02" height="1.02" fill="#f3c79c"/><rect x="16" y="38" width="1.02" height="1.02" fill="#a9c8ef"/><rect x="17" y="38" width="1.02" height="1.02" fill="#c4aede"/><rect x="55" y="38" width="1.02" height="1.02" fill="#c4aede"/><rect x="56" y="38" width="1.02" height="1.02" fill="#a9c8ef"/><rect x="42" y="24" width="30.02" height="1.02" fill="#cbe7fb"/><rect x="0" y="25" width="28.02" height="1.02" fill="#cbe7fb"/><rect x="45" y="25" width="27.02" height="1.02" fill="#cbe7fb"/><rect x="0" y="26" width="25.02" height="1.02" fill="#cbe7fb"/><rect x="48" y="26" width="24.02" height="1.02" fill="#cbe7fb"/><rect x="0" y="27" width="23.02" height="1.02" fill="#cbe7fb"/><rect x="49" y="27" width="13.02" height="1.02" fill="#cbe7fb"/><rect x="62" y="27" width="4.02" height="1.02" fill="#FFFFFF"/><rect x="66" y="27" width="6.02" height="1.02" fill="#cbe7fb"/><rect x="0" y="28" width="22.02" height="1.02" fill="#cbe7fb"/><rect x="51" y="28" width="10.02" height="1.02" fill="#cbe7fb"/><rect x="61" y="28" width="6.02" height="1.02" fill="#FFFFFF"/><rect x="67" y="28" width="5.02" height="1.02" fill="#cbe7fb"/><rect x="0" y="29" width="21.02" height="1.02" fill="#cbe7fb"/><rect x="52" y="29" width="8.02" height="1.02" fill="#cbe7fb"/><rect x="60" y="29" width="8.02" height="1.02" fill="#FFFFFF"/><rect x="68" y="29" width="4.02" height="1.02" fill="#cbe7fb"/><rect x="0" y="30" width="19.02" height="1.02" fill="#ddf0ff"/><rect x="33" y="30" width="7.02" height="1.02" fill="#ddf0ff"/><rect x="50" y="30" width="5.02" height="1.02" fill="#FFFFFF"/><rect x="55" y="30" width="6.02" height="1.02" fill="#ddf0ff"/><rect x="61" y="30" width="6.02" height="1.02" fill="#FFFFFF"/><rect x="67" y="30" width="5.02" height="1.02" fill="#ddf0ff"/><rect x="0" y="31" width="18.02" height="1.02" fill="#ddf0ff"/><rect x="29" y="31" width="15.02" height="1.02" fill="#ddf0ff"/><rect x="49" y="31" width="7.02" height="1.02" fill="#FFFFFF"/><rect x="56" y="31" width="16.02" height="1.02" fill="#ddf0ff"/><rect x="0" y="32" width="17.02" height="1.02" fill="#ddf0ff"/><rect x="27" y="32" width="19.02" height="1.02" fill="#ddf0ff"/><rect x="48" y="32" width="9.02" height="1.02" fill="#FFFFFF"/><rect x="57" y="32" width="15.02" height="1.02" fill="#ddf0ff"/><rect x="0" y="33" width="5.02" height="1.02" fill="#ddf0ff"/><rect x="5" y="33" width="5.02" height="1.02" fill="#FFFFFF"/><rect x="10" y="33" width="7.02" height="1.02" fill="#ddf0ff"/><rect x="26" y="33" width="21.02" height="1.02" fill="#ddf0ff"/><rect x="47" y="33" width="11.02" height="1.02" fill="#FFFFFF"/><rect x="58" y="33" width="14.02" height="1.02" fill="#ddf0ff"/><rect x="0" y="34" width="4.02" height="1.02" fill="#ddf0ff"/><rect x="4" y="34" width="7.02" height="1.02" fill="#FFFFFF"/><rect x="11" y="34" width="5.02" height="1.02" fill="#ddf0ff"/><rect x="24" y="34" width="24.02" height="1.02" fill="#ddf0ff"/><rect x="48" y="34" width="9.02" height="1.02" fill="#e8f2fb"/><rect x="57" y="34" width="15.02" height="1.02" fill="#ddf0ff"/><rect x="0" y="35" width="3.02" height="1.02" fill="#ddf0ff"/><rect x="3" y="35" width="9.02" height="1.02" fill="#FFFFFF"/><rect x="12" y="35" width="3.02" height="1.02" fill="#ddf0ff"/><rect x="23" y="35" width="27.02" height="1.02" fill="#ddf0ff"/><rect x="58" y="35" width="14.02" height="1.02" fill="#ddf0ff"/><rect x="0" y="36" width="2.02" height="1.02" fill="#ddf0ff"/><rect x="2" y="36" width="11.02" height="1.02" fill="#FFFFFF"/><rect x="13" y="36" width="1.02" height="1.02" fill="#ddf0ff"/><rect x="22" y="36" width="29.02" height="1.02" fill="#ddf0ff"/><rect x="59" y="36" width="13.02" height="1.02" fill="#ddf0ff"/><rect x="0" y="37" width="3.02" height="1.02" fill="#ddf0ff"/><rect x="3" y="37" width="9.02" height="1.02" fill="#e8f2fb"/><rect x="12" y="37" width="2.02" height="1.02" fill="#ddf0ff"/><rect x="21" y="37" width="31.02" height="1.02" fill="#ddf0ff"/><rect x="59" y="37" width="13.02" height="1.02" fill="#ddf0ff"/><rect x="0" y="38" width="13.02" height="1.02" fill="#ddf0ff"/><rect x="21" y="38" width="31.02" height="1.02" fill="#ddf0ff"/><rect x="60" y="38" width="12.02" height="1.02" fill="#ddf0ff"/><rect x="0" y="39" width="13.02" height="1.02" fill="#ddf0ff"/><rect x="20" y="39" width="33.02" height="1.02" fill="#ddf0ff"/><rect x="60" y="39" width="12.02" height="1.02" fill="#ddf0ff"/><rect x="0" y="40" width="13.02" height="1.02" fill="#ecf7ff"/><rect x="19" y="40" width="35.02" height="1.02" fill="#ecf7ff"/><rect x="60" y="40" width="12.02" height="1.02" fill="#ecf7ff"/><rect x="0" y="41" width="12.02" height="1.02" fill="#ecf7ff"/><rect x="19" y="41" width="35.02" height="1.02" fill="#ecf7ff"/><rect x="61" y="41" width="11.02" height="1.02" fill="#ecf7ff"/><rect x="0" y="42" width="13.02" height="1.02" fill="#ecf7ff"/><rect x="18" y="42" width="37.02" height="1.02" fill="#ecf7ff"/><rect x="60" y="42" width="12.02" height="1.02" fill="#ecf7ff"/><rect x="0" y="43" width="16.02" height="1.02" fill="#ecf7ff"/><rect x="18" y="43" width="37.02" height="1.02" fill="#ecf7ff"/><rect x="57" y="43" width="15.02" height="1.02" fill="#ecf7ff"/><rect x="0" y="44" width="72.02" height="1.02" fill="#ecf7ff"/><rect x="0" y="45" width="72.02" height="1.02" fill="#ecf7ff"/><rect x="0" y="46" width="72.02" height="1.02" fill="#ecf7ff"/><rect x="0" y="47" width="72.02" height="1.02" fill="#ecf7ff"/></svg>